<svg xmlns="http://www.w3.org/2000/svg" width="6843" height="2596"><path d="M6371.5.663c-27.317 1.811-63.445 7.862-88.718 14.858-62.304 17.249-121.655 48.742-170.282 90.356-12.121 10.374-37.938 35.809-45.5 44.827-3.025 3.608-5.972 7.063-6.55 7.678-.577.615-4.417 5.393-8.531 10.618-42.548 54.026-72.469 118.687-85.837 185.5-6.606 33.018-8.662 55.499-8.458 92.5.217 39.587 4.076 69.261 14.021 107.835 4.112 15.951 11.522 38.718 17.303 53.165 9.686 24.204 28.533 59.81 43.404 82 5.968 8.904 24.412 33.328 28.152 37.279 1.447 1.528 4.781 5.353 7.409 8.5 5.375 6.434 24.472 25.894 33.593 34.231 51.526 47.096 114.64 81.863 181.494 99.977 28.873 7.823 59.79 13.067 88 14.925 16.569 1.092 55.781.585 70-.904 78.843-8.258 145.809-32.494 209.5-75.823 40.122-27.295 78.989-64.872 106.728-103.185 2.589-3.575 5.081-6.95 5.538-7.5 6.974-8.388 24.432-38.046 34.73-59 25.104-51.082 39.647-103.649 44.266-160 1.182-14.415.791-65.849-.6-79-7.798-73.711-32.22-142.103-72.17-202.107-33.396-50.159-76.903-92.992-128.814-126.814-7.241-4.719-13.386-8.579-13.654-8.579-.269 0-3.309-1.719-6.756-3.819-17.384-10.593-50.232-25.594-73.43-33.532-30.396-10.402-54.757-16.184-88.942-21.111C6438.348.793 6392.619-.738 6371.5.663m-1 75.362c-5.5.484-15.175 1.623-21.5 2.53-9.897 1.419-15.576 2.432-29 5.173-5.761 1.176-24.842 6.532-35.278 9.902-45.403 14.659-92.725 41.998-128.957 74.498-37.384 33.535-68.531 75.272-88.68 118.833-7.754 16.764-18.42 44.719-19.664 51.539-.1.55-.925 3.475-1.834 6.5-5.422 18.061-11.288 53.009-12.495 74.442-2.386 42.372 3.003 92.209 13.479 124.644.814 2.522 1.656 5.447 1.871 6.5.638 3.13 6.403 19.094 11.343 31.414 11.94 29.778 30.987 62.322 52.09 89 10.052 12.707 13.945 16.965 31.088 34 57.709 57.344 132.798 93.472 214.037 102.981 87.128 10.198 173.924-10.478 246-58.602 16.684-11.139 16.416-10.948 25-17.836 36.278-29.109 66.582-64.068 90.188-104.043 8.767-14.846 17.369-32.825 24.638-51.5 7.41-19.035 10.315-28.21 14.729-46.518 7.896-32.756 10.426-56.257 9.955-92.482-.611-47.098-8.31-86.198-25.611-130.072-6.222-15.78-19.062-41.841-26.323-53.428-25.658-40.947-54.22-73.208-89.076-100.61-51.194-40.247-117.039-67.634-180-74.865-5.5-.632-11.125-1.374-12.5-1.651-4.769-.958-53.551-1.227-63.5-.349m-4725.263 164c-76.786 2.63-165.253 11.077-245.737 23.463-5.5.847-13.15 1.993-17 2.548-25.602 3.692-92.22 15.785-134.5 24.416-14.575 2.976-37.75 7.695-51.5 10.487s-27.925 5.734-31.5 6.538c-3.575.805-11.9 2.637-18.5 4.073-70.254 15.28-157.406 40.287-224 64.273-24.13 8.691-41.274 15.021-46.014 16.988-2.742 1.138-10.386 4.163-16.986 6.722-6.6 2.56-14.925 5.901-18.5 7.425a3030.325 3030.325 0 01-15.5 6.534c-4.95 2.069-11.376 4.83-14.28 6.135-2.903 1.305-5.479 2.373-5.722 2.373-.244 0-2.818 1.093-5.721 2.43-2.902 1.336-16.715 7.682-30.695 14.1-79.39 36.452-157.78 80.246-229.082 127.981-31.833 21.312-35.884 24.15-64.766 45.383-18.855 13.862-68.024 52.557-71.234 56.06-.275.3-3.2 2.786-6.5 5.524-3.3 2.737-6.225 5.219-6.5 5.514-.275.295-3.65 3.228-7.5 6.517-42.09 35.954-95.452 88.867-133.126 132.007-12.887 14.755-39.192 46.922-51.508 62.984-34.293 44.723-66.596 93.943-91.774 139.831-46.205 84.215-77.233 167.544-94.081 252.669-2.773 14.012-7.359 43.233-8.395 53.5-.278 2.75-.993 9.5-1.589 15-3.768 34.773-4.034 96.674-.534 124.5.242 1.925.931 8.225 1.531 14 4.105 39.514 15.533 89.465 29.741 130 15.483 44.168 39.701 93.147 65.023 131.5 13.672 20.709 29.211 42.198 39.125 54.107a250.981 250.981 0 014.087 5.035c22.658 29.111 65.171 71.55 105 104.818 39.422 32.929 100.615 74.085 149.5 100.548 4.4 2.382 12.275 6.655 17.5 9.496 11.715 6.371 48.818 24.644 63 31.028 14.25 6.415 53.958 23.468 54.644 23.468.305 0 1.972.66 3.705 1.468 14.238 6.631 78.327 29.491 113.151 40.36 36.921 11.523 53.691 16.367 82 23.686 9.9 2.56 21.15 5.523 25 6.585 16.747 4.621 94.759 15.653 137 19.375 87.776 7.733 176.894 8.385 265.5 1.942 11.275-.82 21.625-1.663 23-1.874 1.375-.211 6.1-.66 10.5-.999 4.4-.338 9.125-.801 10.5-1.027 1.375-.226 5.65-.681 9.5-1.01 8.353-.714 47.359-5.425 49.5-5.979.825-.213 4.2-.661 7.5-.996 3.3-.335 8.475-1.032 11.5-1.548 3.025-.517 14.275-2.318 25-4.001 65.796-10.33 135.26-25.562 206-45.174 11.825-3.278 23.525-6.583 26-7.344 2.475-.761 15.525-4.763 29-8.894 58.247-17.857 132.36-44.647 185.5-67.053 6.05-2.551 14.15-5.917 18-7.48 12.972-5.267 55.52-24.259 74-33.033a3768.59 3768.59 0 0118.5-8.72c10.503-4.898 64.889-32.087 75.069-37.528a6681.24 6681.24 0 0115.931-8.482c49.755-26.372 116.359-64.921 156.5-90.58 55.331-35.368 113.007-74.371 143.8-97.243a771.252 771.252 0 016.913-5.039c5.089-3.665 43.758-32.58 48.787-36.48 1.925-1.493 7.158-5.576 11.629-9.073a1900.087 1900.087 0 0113.361-10.359c2.879-2.2 5.746-4.454 6.372-5.009.626-.555 7.663-6.173 15.638-12.483 12.637-10 32.249-26.023 39.985-32.668 1.383-1.188 7.275-6.138 13.093-11 10.214-8.536 35.737-30.49 42.922-36.919 12.349-11.051 15.051-13.421 15.302-13.421.154 0-.026 3.713-.4 8.25-.375 4.537-.977 12.975-1.338 18.75-.362 5.775-1.317 19.725-2.122 31a9082.587 9082.587 0 00-2.944 43c-.813 12.375-1.689 24.075-1.945 26-.256 1.925-.758 9.35-1.114 16.5-.356 7.15-.773 13.225-.927 13.5-.155.275-.584 6.35-.955 13.5-.37 7.15-.872 14.8-1.114 17-.434 3.94-2.577 34.651-4.465 64-.531 8.25-1.081 16.35-1.222 18l-.256 3h150l5.675-2.662c23.558-11.05 45.232-38.689 69.273-88.338 8.417-17.384 19.552-41.3 19.552-41.997 0-.196 1.522-3.652 3.382-7.68 1.861-4.028 4.589-10.248 6.063-13.823 1.474-3.575 3.275-7.85 4.003-9.5.728-1.65 3.577-8.175 6.333-14.5a8084.077 8084.077 0 0112.735-29c4.249-9.625 8.896-20.2 10.326-23.5 5.98-13.795 26.682-53.989 34.372-66.735 15.149-25.11 31.719-45.407 46.165-56.547 6.787-5.234 19.792-12.218 22.75-12.218 3.017 0 15.4 8.384 22.685 15.36 9.838 9.42 25.353 28.146 35.743 43.14 10.474 15.116 20.411 30.538 32.216 50 3.336 5.5 7.161 11.8 8.499 14 1.339 2.2 6.02 10.075 10.402 17.5 11.238 19.042 27.983 47.002 33.499 55.934 2.57 4.161 5.909 9.591 7.42 12.066 31.133 50.981 61.805 86.546 84.019 97.423 6.085 2.98 15.415 5.577 20.033 5.577 11.886 0 32.575-8.425 42.974-17.5.63-.55 3.111-2.575 5.512-4.5 13.274-10.643 33.831-33.923 52.981-60 14.844-20.213 16.838-23.002 26.453-37 2.456-3.575 7.797-11.225 11.87-17a3772.238 3772.238 0 0015.023-21.5c18.685-26.975 21.092-30.312 41.258-57.169 19.434-25.883 37.341-47.696 38.294-46.647.407.449 2.441 4.866 4.518 9.816 9.754 23.244 28.727 63.401 36.144 76.5 1.09 1.925 3.731 6.65 5.868 10.5 17.947 32.324 39.035 61.155 60.408 82.588 41.061 41.178 83.022 54.677 128.872 41.458 43.289-12.48 87.702-47.885 135.967-108.39 7.308-9.161 17.845-23.069 23.416-30.906 5.572-7.838 10.221-14.138 10.332-14 .112.137 3.475 7.675 7.474 16.75 37.667 85.48 81.827 143.993 127.811 169.354 55.818 30.785 116.462 20.766 194.68-32.163 16.199-10.961 23.794-16.558 42.654-31.426 7.51-5.921 13.984-10.765 14.387-10.765.402 0 4.383 3.739 8.845 8.31 42.619 43.65 94.423 73.179 146.799 83.679 23.907 4.793 53.065 5.77 78.124 2.618 33.213-4.177 70.776-17.117 103.292-35.581 11.431-6.491 30.688-18.981 35.989-23.343 1.05-.864 4.61-3.606 7.91-6.093s8.015-6.309 10.478-8.494c2.464-2.185 4.552-3.888 4.641-3.784.089.103 2.546 5.588 5.46 12.188 15.599 35.33 34.821 55.39 62.084 64.791 10.469 3.61 19.14 4.844 33.572 4.775 51.13-.243 119.088-34.412 205.765-103.459 5.5-4.382 11.607-9.348 13.571-11.037a409.76 409.76 0 016.015-5.07c14.97-12.248 36.782-31.343 46.125-40.378 4.639-4.487 6.857-6.048 7.186-5.056.467 1.405 6.325 21.979 7.1 24.934 2.489 9.488 10.715 30.687 16.877 43.489 16.823 34.952 38.231 60.282 65.675 77.706 13.174 8.364 33.157 16.027 51.951 19.922 10.399 2.155 13.942 2.38 37 2.351 23.358-.029 26.844-.266 41.5-2.828 48.654-8.506 95.282-25.41 158.293-57.389l22.294-11.314 4.206 3.411c5.818 4.717 30.708 21.355 41.382 27.661 18.729 11.065 46.792 23.785 69.825 31.648 17.446 5.956 46.417 12.749 63.5 14.888 3.025.379 6.386.855 7.47 1.057 12.132 2.266 63.13 2.848 78.53.896 1.925-.243 5.975-.706 9-1.028 86.001-9.144 182.947-50.159 273-115.499 17.781-12.901 43.585-33.196 54.539-42.895a1871.92 1871.92 0 0110.951-9.576c16.859-14.636 35.083-32.003 55.245-52.65 8.121-8.316 15.215-15.639 15.765-16.274.55-.635 3.7-4.066 7-7.624 12.779-13.78 32.576-36.874 41.5-48.411 2.475-3.2 5.664-7.218 7.087-8.929 1.423-1.712 6.644-8.512 11.602-15.112 29.685-39.513 54.396-78.332 74.255-116.648l6.556-12.648-32.34-32.765c-31.61-32.025-34.067-34.106-34.145-28.912-.035 2.397-9.549 23.821-16.149 36.365-9.628 18.302-27.455 46.77-38.892 62.108-1.436 1.925-5.942 8-10.014 13.5-31.47 42.504-73.984 88.781-124.534 135.558-2.709 2.507-11.451 10.106-19.426 16.886-7.975 6.78-15.85 13.504-17.501 14.942-21.418 18.659-70.868 53.386-101.797 71.488-43.186 25.277-93.249 45.676-125.202 51.017-1.65.276-7.031 1.195-11.959 2.042-26.524 4.559-58.129 2.638-81.99-4.983-23.999-7.666-50.986-25.737-55.181-36.95-2.47-6.605-2.403-17.259.155-24.33 2.183-6.036 10.267-16.307 16.081-20.433 15.855-11.25 49.742-37.246 55.002-42.194.61-.574 4.435-3.924 8.5-7.446 12.334-10.683 47.835-46.839 58.52-59.597 12.006-14.338 25.414-32.118 35.062-46.5 7.864-11.722 14.31-21.831 14.31-22.441 0-.22 2.301-4.374 5.114-9.23 11.862-20.48 24.898-51.174 31.781-74.829 9.963-34.246 12.748-73.763 7.171-101.765-2.48-12.451-7.993-29.022-12.056-36.235-1.549-2.75-3.809-6.8-5.022-9-6.316-11.458-20.942-27.385-33.797-36.803-14.518-10.636-25.446-14.772-46.691-17.67-10.649-1.454-37.561-1.128-50 .605-45.188 6.293-95.57 28.481-142.5 62.755-33.788 24.677-72.369 63.645-97.137 98.113-47.798 66.516-75.2 138.681-80.878 213-1.196 15.657-1.115 45.794.164 61 1.394 16.568 5.772 41.942 10.486 60.778 2.447 9.777 4.225 18.139 3.952 18.581-.708 1.146-19.047 13.197-25.587 16.815-8.18 4.524-22.458 9.922-31.408 11.873-13.099 2.856-30.272 1.146-40.74-4.056-10.825-5.38-23.927-17.575-32.219-29.991-26.351-39.456-43.103-115.221-49.256-222.774l-.673-11.774 3.396-4.226c12.62-15.703 35.797-48.974 50.662-72.726 10.615-16.962 36.057-65.307 43.941-83.5 1.192-2.75 3.365-7.7 4.828-11 11.383-25.671 26.248-67.742 34.878-98.716 5.548-19.91 6.384-23.372 11.536-47.784 12.456-59.019 15.99-125.593 8.944-168.5l-1.888-11.5c-3.952-24.095-13.954-50.994-25.331-68.129-12.163-18.32-26.709-30.031-45.17-36.367-9.872-3.388-20.077-4.143-35.556-2.632-67.426 6.584-123.01 47.606-166.271 122.712-18.182 31.565-38.646 84.201-48.566 124.916-.536 2.2-1.707 6.925-2.602 10.5-5.255 20.993-11.383 53.794-14.572 78-1.123 8.525-2.218 16.625-2.434 18-.386 2.469-1.942 17.314-2.933 28-3.492 37.627-3.976 50.326-3.96 104 .014 50.537 1.335 88.778 3.885 112.5.237 2.2.674 7.15.972 11 .298 3.85 1.988 20.408 3.755 36.796 2.118 19.638 2.884 30.243 2.248 31.106-1.093 1.481-20.78 26.026-23.34 29.098-.916 1.1-4.793 5.825-8.614 10.5-10.453 12.789-15.747 18.955-32.61 37.98-21.189 23.908-46.206 47.281-63.402 59.236-14.782 10.277-25.684 14.822-35.747 14.901-9.629.075-15.965-4.235-21.048-14.319-2.49-4.94-2.772-6.885-4.169-28.798-.824-12.925-1.72-26.425-1.99-30-.271-3.575-.741-10.775-1.046-16a1623.34 1623.34 0 00-1.014-16c-.254-3.575-.699-10.325-.99-15-.29-4.675-.757-12.1-1.037-16.5-.756-11.891-2.012-32.482-2.958-48.5-1.619-27.408-2.665-42.46-2.972-42.787-.242-.258-46.254 12.765-117.529 33.264a8310.074 8310.074 0 01-48.186 13.679l-22.687 6.344.381 4.5c1.951 23.031 2.601 58.306 1.437 78-3.767 63.749-19.117 103.433-47.489 122.774-25.937 17.682-50.173 12.958-70.386-13.717-22.323-29.46-39.255-80.011-46.242-138.057-1.701-14.128-1.697-54.875.006-67 5.852-41.659 19.796-71.137 40.166-84.908 16.909-11.431 34.09-12.517 52.5-3.317 21.367 10.677 40.404 34.488 54.546 68.225 1.268 3.025 2.401 5.637 2.518 5.805.208.299 11.576-7.667 28.436-19.926 4.675-3.4 10.525-7.614 13-9.367 2.475-1.752 9.675-6.934 16-11.515 6.325-4.581 33.325-24.084 60-43.34 26.675-19.256 50.402-36.449 52.727-38.206l4.226-3.196-8.008-5.877c-32.109-23.567-78.656-41.044-119.445-44.848-3.85-.359-8.575-.87-10.5-1.136-5.062-.701-40.884-.651-49.863.068-52.311 4.192-103.622 18.884-155.637 44.567-22.94 11.327-32.988 17.136-54 31.219-12.022 8.058-35.077 25.095-37.5 27.712-.275.297-4.1 3.672-8.5 7.5-50.777 44.177-87.219 97.763-102.389 150.556-1.657 5.766-3.235 11.609-3.506 12.984l-1.979 10c-.818 4.125-1.989 12.988-2.603 19.696-.614 6.708-1.279 13.008-1.476 14-3.786 19.017-14.724 34.157-33.025 45.712-16.135 10.188-52.506 22.551-62.365 21.2-23.24-3.185-46.262-34.567-63.537-86.608-4.926-14.838-12.664-43.909-14.108-53-.306-1.925-1.219-6.875-2.03-11-3.831-19.492-7.834-55.499-9.394-84.5-.874-16.242-.637-66.043.375-79 3.025-38.708 3.847-46.354 7.685-71.5l3.129-20.5 12.112-2.336c28.554-5.507 76.333-14.978 207.611-41.154 76.725-15.298 149.4-29.771 161.5-32.163l22-4.347.106-4.5c.058-2.475.42-26.05.805-52.39l.699-47.89-3.305.577c-1.818.317-10.955 2.199-20.305 4.182a12205.3 12205.3 0 01-36.5 7.666c-10.725 2.233-23.55 4.929-28.5 5.992a1722.6 1722.6 0 01-16 3.35c-3.85.78-15.775 3.269-26.5 5.531a14422.327 14422.327 0 01-31 6.507 10288.84 10288.84 0 00-28.5 5.993c-9.35 1.98-23.3 4.908-31 6.508-7.7 1.599-20.525 4.293-28.5 5.986a3639.5 3639.5 0 01-24 5.011 2212.135 2212.135 0 00-19 3.971c-5.225 1.122-12.65 2.68-16.5 3.464-3.85.784-14.65 3.058-24 5.053-9.35 1.996-18.533 3.892-20.406 4.215l-3.406.586.666-3.906c.366-2.148 1.365-8.631 2.22-14.406.854-5.775 1.742-11.625 1.973-13 .23-1.375.89-6.1 1.466-10.5s1.233-9.35 1.46-11c1.288-9.358 4.7-47.222 5.452-60.5.837-14.788.614-63.065-.33-71.5-.246-2.2-.72-7.15-1.053-11-3.238-37.441-14.887-75.178-29.171-94.502-34.23-46.306-89.125-27.138-138.909 48.502-34.328 52.156-62.908 126.614-81.933 213.449-3.258 14.871-8.424 41.858-11.161 58.301-.598 3.598-.791 3.755-4.746 3.878-2.267.07-5.247.243-6.622.385-1.375.142-9.925.578-19 .969s-17.625.844-19 1.009c-1.375.164-10.375.624-20 1.023-9.625.398-17.757.872-18.07 1.053-.314.181-5.159.408-10.767.504-5.609.097-10.46.6-10.78 1.119-.728 1.177-1.008 9.628-1.902 57.456-.686 36.701-.643 38.167 1.153 38.708 1.026.309 15.366 1.029 31.866 1.6 42.153 1.457 66.919 3.132 68.413 4.626.69.69.388 4.482-1.985 24.92-6.853 59.021-9.768 82.246-14.995 119.5-5.34 38.057-5.484 38.621-16.914 65.961-18.128 43.364-37.138 68.386-57.018 75.05-29.815 9.994-60.177-17.257-96.93-86.997-9.72-18.443-22.387-45.249-33.086-70.014-3.445-7.975-7.551-17.324-9.125-20.775-1.573-3.451-2.86-6.535-2.86-6.853 0-.317-2.186-5.594-4.858-11.725a4936.78 4936.78 0 01-9.148-21.147c-2.359-5.5-5.297-12.25-6.53-15-1.232-2.75-3.244-7.25-4.472-10-12.075-27.05-21.332-42.961-29.05-49.933-4.08-3.687-4.424-3.801-9.934-3.301-13.769 1.248-35.663 14.376-61.508 36.88-13.819 12.033-44.823 44.155-63.08 65.354-37.255 43.261-94.525 119.546-115.012 153.202l-1.95 3.202-13.421-23.702c-65.29-115.297-106.859-171.343-152.192-205.196-12.021-8.977-28.581-17.938-40.392-21.857-19.183-6.364-38.994-7.159-60.953-2.445-13.473 2.892-52.757 23.683-79.5 42.076-8.977 6.173-28.917 20.907-30 22.166-.275.32-2.971 2.6-5.99 5.068-9.461 7.731-11.227 9.277-19.962 17.486-33.775 31.738-55.981 59.636-78.8 99l-6.376 11 .561-40c.309-22 .835-66.713 1.17-99.363l.608-59.363 9.039-16.137c18.799-33.56 52.375-99.905 62.571-123.637 1.063-2.475 3.323-7.516 5.022-11.201 7.324-15.886 23.184-54.4 31.596-76.722 19.285-51.178 32.665-95.626 43.071-143.077 3.344-15.247 9.785-52.223 10.975-63 .334-3.025 1.291-11.575 2.126-19 1.828-16.252 2.66-68.094 1.332-83-6.614-74.237-31.963-124.746-72.771-145.002-54.443-27.023-123.813 9.229-180.837 94.502-28.254 42.253-53.71 97.4-73.624 159.5-7.206 22.473-14.92 49.328-17.234 60-.179.825-1.684 6.9-3.345 13.5-3.434 13.648-11.232 50.546-13.527 64-.844 4.95-2.652 15.525-4.017 23.5-1.366 7.975-2.705 16.3-2.976 18.5-.271 2.2-1.408 10.3-2.528 18-6.102 41.988-11.799 103.515-13.612 147-.344 8.25-.846 16.575-1.117 18.5-.271 1.925-.731 36.125-1.023 76-.43 58.858-.786 72.876-1.892 74.5-1.438 2.112-13.594 17.514-26.903 34.085-9.841 12.255-28.111 33.86-40.537 47.939-10.904 12.355-18.451 20.739-32.831 36.476-10.705 11.714-70.772 71.996-81.669 81.96-3.85 3.521-9.925 9.152-13.5 12.515-3.575 3.363-12.125 11.029-19 17.037-6.875 6.008-14.766 12.963-17.537 15.456-6.377 5.738-6.941 6.213-30.963 26.073-21.16 17.493-43.179 34.863-59 46.541-1.1.812-7.625 5.666-14.5 10.787-26.227 19.534-69.07 48.986-95.5 65.65-73.95 46.626-131.154 78.09-204 112.208-17.624 8.254-52.22 23.773-52.997 23.773-.244 0-2.82 1.083-5.723 2.406-5.923 2.699-50.947 20.796-63.28 25.435-77.4 29.113-149.276 50.731-229.5 69.026-34.411 7.847-91.686 18.565-118.5 22.175-30.77 4.143-38.633 5.157-50.5 6.511-7.425.847-15.75 1.751-18.5 2.008-2.75.257-9.05.913-14 1.458-31.461 3.462-79.347 5.481-130 5.481-46.914 0-77.884-1.133-109-3.987-21.243-1.949-31.273-3.033-56.5-6.109-68.181-8.314-154.16-29.141-216.671-52.485-7.244-2.706-13.444-4.919-13.777-4.919-2.171 0-53.713-22.987-70.914-31.627-20.577-10.335-47.78-25.266-58.593-32.16-62.271-39.699-103.585-74.209-149.298-124.713-2.489-2.75-8.89-10.4-14.224-17s-10.454-12.9-11.378-14c-8.487-10.101-32.389-45.947-43.674-65.5-6.707-11.62-26.471-49.955-26.471-51.344 0-.263-1.534-3.78-3.409-7.817-9.583-20.631-22.609-56.846-29.984-83.363-8.982-32.291-16.815-72.051-20.977-106.476-2.477-20.49-3.044-26.72-4.14-45.5-.32-5.5-.793-12.475-1.05-15.5-.636-7.483-.595-68.442.053-79 1.146-18.658 2.416-27.581 8.891-62.5 8.872-47.844 26.345-110.403 43.851-157 43.774-116.519 105.122-216.888 188.56-308.5 10.708-11.757 48.039-49.268 61.45-61.747 37.537-34.927 89.918-75.822 136.255-106.377 24.726-16.304 40.406-26.131 56.5-35.41 21.13-12.183 29.541-16.886 45-25.166 59.581-31.913 124.297-60.104 190-82.764 37.515-12.939 86.856-28.036 123-37.634 6.325-1.68 14.875-3.958 19-5.062 7.598-2.034 34.506-8.759 45.5-11.373 25.211-5.993 71.92-15.673 94-19.481 6.6-1.138 13.125-2.276 14.5-2.528 21.253-3.895 83.811-12.046 107-13.942 47.736-3.903 67.736-4.766 109-4.705 48.152.072 78.11 1.97 122 7.729 115.054 15.099 214.271 55.073 281.5 113.416 8.501 7.378 30.517 29.974 37.812 38.809 9.838 11.915 22.972 31.8 30.59 46.314 21.822 41.576 30.54 85.276 25.621 128.421-5.706 50.044-27.825 94.833-66.291 134.235-13.005 13.322-29.33 26.952-44.232 36.932-34.042 22.797-74.134 41.121-114.5 52.334-16.638 4.621-23.461 6.247-44 10.485-10.345 2.134-37.417 6.203-50 7.514-6.05.631-12.489 1.308-14.31 1.505-25.162 2.727-96.772 3.022-125.19.516a12419.08 12419.08 0 00-18-1.573c-5.785-.497-25.571-2.718-35-3.928-16.357-2.099-23.39-3.162-43.5-6.573-12.65-2.146-29.412-5.201-37.25-6.788l-14.25-2.886-.028 11.613c-.015 6.388-.298 30.133-.63 52.767l-.602 41.153 7.38 1.592c9.808 2.116 36.035 7.06 47.88 9.025 5.225.867 10.808 1.823 12.407 2.125 5.713 1.077 33.29 5.182 46.593 6.936 55.327 7.293 104.216 10.611 158 10.723 38.326.081 45.832-.171 82-2.75 36.001-2.567 85.087-9.97 120-18.097 111.654-25.99 200.242-72.184 265.651-138.522 16.493-16.728 23.482-24.839 36.046-41.838 22.889-30.968 39.812-63.295 51.214-97.831 21.873-66.254 22.629-136.27 2.203-204.169-3.529-11.729-9.567-28.909-12.168-34.618-1.07-2.35-1.946-4.554-1.946-4.899 0-1.155-13.743-28.883-18.577-37.483-9.199-16.364-24.276-38.511-32.923-48.362-.55-.627-5.562-6.314-11.137-12.639-40.17-45.567-97.12-83.248-167.74-110.985-51.18-20.102-119.691-36.403-185.123-44.046-21.101-2.464-61.116-5.941-80-6.951-26.328-1.408-93.163-1.954-121.263-.992m4475.43 54.642c-.367.366-.667 11.841-.667 25.5V345h87.992l.254 123.25.254 123.25h60l.254-123.25.254-123.25H6356v-51h-117.333c-64.534 0-117.634.3-118 .667M6394 443.016v149.016l27.75-.266 27.75-.266.5-114.237.5-114.238 27.938 111.238c15.366 61.18 28.325 112.699 28.797 114.487l.859 3.25h57.812l.892-3.25c.491-1.788 13.449-53.042 28.797-113.899l27.905-110.649.5 113.649.5 113.649h56v-297l-44.439-.261c-24.442-.143-44.795.095-45.228.528-.434.434-11.596 41.951-24.806 92.261a297819.125 297819.125 0 01-26.128 99.472c-1.162 4.4-2.184 8.361-2.273 8.802-.088.442-2.583-8.333-5.542-19.5-2.96-11.166-7.557-28.402-10.215-38.302-7.715-28.731-32.865-123.276-34.98-131.5-1.061-4.125-2.361-8.512-2.888-9.75l-.958-2.25H6394v149.016m-3665.556 278.87c-8.147 3.701-15.005 14.382-20.316 31.64-7.03 22.848-11.535 51.963-13.689 88.474-.341 5.775-.821 11.625-1.068 13-.842 4.701-1.116 95.473-.332 110 1.4 25.939 2.16 37.489 2.506 38.061.186.308.446 2.906.577 5.773.144 3.156.66 5.078 1.308 4.872 3.037-.967 22.954-37.368 34.45-62.962 3.176-7.073 13.829-33.885 17.776-44.744 11.375-31.29 21.74-72.522 24.066-95.734.428-4.271.744-14.966.703-23.766-.098-21.065-2.006-30.202-9.14-43.777-6.295-11.98-20.6-22.778-30.073-22.701-1.491.012-4.537.851-6.768 1.864m2384.11 223.832c-18.686 4.844-43.446 54.953-59.188 119.782-6.413 26.412-12.185 61.451-14.299 86.804-1.59 19.076-1.348 50.018.489 62.568 3.642 24.877 10.276 37.113 20.129 37.124 4.702.006 7.777-1.458 12.816-6.104 25.351-23.367 53.062-104.743 61.94-181.892 4.888-42.477 3.972-79.658-2.473-100.303-2.046-6.552-6.435-13.942-9.582-16.13-2.312-1.608-7.21-2.529-9.832-1.849M3421.5 985.69c-20.218 1.203-35.753 5.375-55 14.771-27.6 13.473-50.995 38.333-60.918 64.734-16.639 44.27-2.125 91.408 36.918 119.902 20.382 14.875 44.458 22.245 73 22.346 25.847.092 46.932-5.601 69.5-18.766 10.447-6.094 15.027-9.683 26.289-20.598 14.504-14.056 25.149-32.331 30.426-52.233 2.447-9.23 2.731-11.964 2.633-25.346-.086-11.731-.559-16.673-2.169-22.675-8.844-32.968-32.432-59.323-65.176-72.824-10.364-4.274-24.909-7.803-35.013-8.497-4.669-.321-10.065-.702-11.99-.847-1.925-.145-5.75-.13-8.5.033m2080.319 296.777c-12.531 3.182-27.063 20.069-40.681 47.275-13.883 27.734-23.653 58.607-29.799 94.169-2.345 13.572-2.703 18.436-2.767 37.589-.075 23.036.638 29.072 4.67 39.5 4.081 10.552 9.077 15 16.849 15 12.044 0 27.274-15.458 42.035-42.664 16.849-31.052 31.324-80.664 34.672-118.836 1.109-12.636.781-36.382-.6-43.5-4.223-21.767-12.567-31.532-24.379-28.533M2490 2269.599v181.613l125.75-.498c69.162-.274 127.1-.741 128.75-1.038 1.65-.297 7.5-.817 13-1.157 31.193-1.925 64.769-9.733 85-19.766 19.103-9.474 38.055-24.299 51.739-40.474 7.035-8.316 22.761-33.128 22.761-35.912 0-.493.839-2.465 1.865-4.382 3.526-6.587 10.973-31.499 13.149-43.985 5.545-31.821 3.096-72.546-6.067-100.864-4.84-14.959-15.915-36.9-22.614-44.8a3260.34 3260.34 0 01-7.833-9.325c-21.567-25.745-61.601-47.331-102-54.997-30.372-5.763-32.246-5.827-173.75-5.932l-129.75-.096v181.613m939.048-179.349c-1.209 1.899-9.711 16.7-18.525 32.25-2.932 5.172-89.236 156.045-91.526 160-.955 1.65-10.176 17.85-20.492 36-10.315 18.15-19.088 33.45-19.496 34-.408.55-1.863 3.025-3.234 5.5a877.026 877.026 0 01-4.634 8.25c-1.177 2.063-3.07 5.39-4.205 7.394-1.135 2.004-6.468 11.342-11.852 20.75-5.383 9.408-10.924 19.131-12.313 21.606-1.389 2.475-6.181 10.789-10.648 18.477-4.468 7.687-8.123 14.554-8.123 15.261 0 1.029 8.366 1.232 42.168 1.023l42.169-.261 4.903-9c2.697-4.95 6.963-12.825 9.48-17.5 6.825-12.677 10.164-18.844 13.806-25.5 10-18.275 13.474-24.887 13.474-25.646 0-.465 52.313-.96 116.25-1.1l116.25-.254 6.835 12c7.039 12.359 8.316 14.647 18.138 32.5a2416.92 2416.92 0 0012.727 22.75l6.95 12.25h47.425c29.958 0 47.425-.357 47.425-.97 0-.533-.833-2.445-1.852-4.25-3.791-6.717-21.757-37.767-29.961-51.78-11.936-20.39-19.091-32.764-21.971-38-1.362-2.475-5.267-9.225-8.679-15-5.867-9.932-8.563-14.561-12.519-21.5-2.895-5.077-8.057-13.919-9.049-15.5-.518-.825-8.867-15.225-18.553-32-16.717-28.951-20.54-35.548-24.632-42.5-.971-1.65-3.007-5.2-4.525-7.889-1.517-2.689-3.212-5.614-3.767-6.5-.554-.886-3.074-5.211-5.599-9.611-2.526-4.4-11.253-19.475-19.395-33.5a62003.529 62003.529 0 01-26.962-46.5 12243.263 12243.263 0 00-16.983-29.25l-4.823-8.25h-82.249l-1.433 2.25m626.199 179l.253 181.25h85l.253-181.25.252-181.25h-86.01l.252 181.25m487-.027l.253 181.277 41.75.261 41.75.261V2314h40.917c22.504 0 41.066.347 41.25.771.183.424 3.708 3.876 7.833 7.671 4.125 3.795 9.975 9.214 13 12.043 3.025 2.828 14.725 13.638 26 24.021 11.275 10.384 22.75 21.01 25.5 23.614 5.816 5.508 7.423 6.999 21.966 20.38 5.977 5.5 11.355 10.455 11.951 11.01 19.539 18.224 24.643 22.952 34.324 31.791l6.242 5.699h60.508c33.28 0 60.505-.338 60.501-.75-.005-.412-3.718-3.765-8.25-7.451a33285.246 33285.246 0 00-68.242-55.254 7553.95 7553.95 0 01-23.5-19.025c-4.125-3.365-12.225-9.953-18-14.641-5.775-4.687-13.65-11.092-17.5-14.232-3.85-3.141-12.032-9.634-18.181-14.429-6.15-4.795-11.423-9.28-11.719-9.968-.422-.981 4.988-1.251 25.181-1.253 40.807-.006 56.089-2.141 71.828-10.038 18.038-9.049 27.851-25.168 30.351-49.853 1.186-11.72 1.213-92.225.034-104.606-2.906-30.524-13.872-46.533-37.832-55.23-16.592-6.023-4.05-5.625-188.915-5.99l-169.252-.334.252 181.277m686.805-177.473c1.894 2.063 7.955 8.475 13.468 14.25 20.45 21.419 42.613 44.848 44.593 47.138 1.123 1.299 6.17 6.648 11.215 11.887 11.657 12.104 43.408 45.412 46.576 48.859 1.322 1.439 10.357 10.941 20.078 21.116 9.72 10.175 18.989 19.912 20.596 21.638 1.607 1.726 8.892 9.445 16.189 17.152l13.268 14.014.232 81.348.233 81.348h86l.268-82 .268-82 3.732-4.124c2.053-2.268 12.057-12.779 22.232-23.357 10.175-10.579 20.253-21.098 22.396-23.376 2.143-2.279 8.443-8.889 14-14.69 5.557-5.8 19.329-20.194 30.604-31.986 11.275-11.792 24.986-26.079 30.469-31.749 5.483-5.669 10.222-10.718 10.532-11.219.309-.501 6.173-6.694 13.031-13.762 11.67-12.028 29.173-30.272 38.364-39.987l4.02-4.25-50.458.017-50.458.018-18.142 20.232c-9.978 11.128-24.107 26.758-31.397 34.733-21.75 23.793-29.374 32.204-34.446 38-2.648 3.025-9.391 10.45-14.985 16.5-5.594 6.05-13.872 15.154-18.395 20.231l-8.225 9.231-9.602-10.731c-14.528-16.234-17.247-19.253-22.747-25.252-5.533-6.036-20.167-22.239-22.561-24.981-2-2.29-33.924-37.626-46.509-51.48-5.505-6.06-13.098-14.506-16.873-18.768l-6.863-7.75H5225.608l3.444 3.75M4626 2201.027v50.026l104.75-.276 104.75-.277 5.793-2.338c6.42-2.591 8.837-4.73 12.044-10.662 2.091-3.867 2.163-5.084 2.163-36.5 0-29.812-.154-32.79-1.867-36-4.199-7.871-8.119-10.424-19.29-12.561-6.23-1.192-24.731-1.439-107.931-1.439H4626v50.027m-2050 66.441v114.588l63.25-.169c34.787-.092 68.875-.533 75.75-.98 60.188-3.909 96.153-18.611 114.306-46.726 13.52-20.94 19.417-50.195 16.686-82.78-4.676-55.783-34.592-87.654-90.617-96.539-4.397-.697-37.965-1.251-93.125-1.536l-86.25-.446v114.588m879.476-84.712c-7.137 12.948-16.602 30.113-21.034 38.143L3417.83 2251c-14.87 26.944-24.516 44.344-27.303 49.25l-2.698 4.75h159.188l-2.905-5.25c-1.598-2.887-9.765-18.075-18.149-33.75-19.208-35.914-21.472-40.138-25.456-47.5-1.786-3.3-5.392-10.05-8.014-15-2.622-4.95-5.546-10.35-6.497-12-.951-1.65-4.57-8.4-8.041-15-3.472-6.6-7.03-13.189-7.907-14.643l-1.596-2.643-12.976 23.542M2491 2563.5v32.5h3162v-65H2491v32.5" fill="#ffffff" fill-rule="evenodd"/></svg>